<svg width="1031" height="321" xmlns="http://www.w3.org/2000/svg" xmlns:xlink="http://www.w3.org/1999/xlink" xml:space="preserve" overflow="hidden"><g transform="translate(-1897 -977)"><path d="M1900.11 980.186 2176.53 980.186 2176.53 1063.63 1900.11 1063.63Z" fill="#F4E9DC" fill-rule="evenodd"/><path d="M2176.53 980.186 2385.52 980.186 2385.52 1063.63 2176.53 1063.63Z" fill="#F4E9DC" fill-rule="evenodd"/><path d="M2385.52 980.186 2597.5 980.186 2597.5 1063.63 2385.52 1063.63Z" fill="#F4E9DC" fill-rule="evenodd"/><path d="M2597.5 980.186 2742.47 980.186 2742.47 1063.63 2597.5 1063.63Z" fill="#F4E9DC" fill-rule="evenodd"/><path d="M2742.47 980.186 2923.18 980.186 2923.18 1063.63 2742.47 1063.63Z" fill="#F4E9DC" fill-rule="evenodd"/><path d="M1900.11 1063.63 2176.53 1063.63 2176.53 1115.42 1900.11 1115.42Z" fill="#F4E9DC" fill-rule="evenodd"/><path d="M2176.53 1063.63 2385.52 1063.63 2385.52 1115.42 2176.53 1115.42Z" fill="#F4E9DC" fill-rule="evenodd"/><path d="M2385.52 1063.63 2597.5 1063.63 2597.5 1115.42 2385.52 1115.42Z" fill="#F4E9DC" fill-rule="evenodd"/><path d="M2597.5 1063.63 2742.47 1063.63 2742.47 1115.42 2597.5 1115.42Z" fill="#F4E9DC" fill-rule="evenodd"/><path d="M2742.47 1063.63 2923.18 1063.63 2923.18 1115.42 2742.47 1115.42Z" fill="#F4E9DC" fill-rule="evenodd"/><path d="M1900.11 1115.42 2176.53 1115.42 2176.53 1180.71 1900.11 1180.71Z" fill="#F4E9DC" fill-rule="evenodd"/><path d="M2176.53 1115.42 2385.52 1115.42 2385.52 1180.71 2176.53 1180.71Z" fill="#F4E9DC" fill-rule="evenodd"/><path d="M2385.52 1115.42 2597.5 1115.42 2597.5 1180.71 2385.52 1180.71Z" fill="#F4E9DC" fill-rule="evenodd"/><path d="M2597.5 1115.42 2742.47 1115.42 2742.47 1180.71 2597.5 1180.71Z" fill="#F4E9DC" fill-rule="evenodd"/><path d="M2742.47 1115.42 2923.18 1115.42 2923.18 1180.71 2742.47 1180.71Z" fill="#F4E9DC" fill-rule="evenodd"/><path d="M1900.11 1180.71 2176.53 1180.71 2176.53 1238.66 1900.11 1238.66Z" fill="#F4E9DC" fill-rule="evenodd"/><path d="M2176.53 1180.71 2385.52 1180.71 2385.52 1238.66 2176.53 1238.66Z" fill="#F4E9DC" fill-rule="evenodd"/><path d="M2385.52 1180.71 2597.5 1180.71 2597.5 1238.66 2385.52 1238.66Z" fill="#F4E9DC" fill-rule="evenodd"/><path d="M2597.5 1180.71 2742.47 1180.71 2742.47 1238.66 2597.5 1238.66Z" fill="#F4E9DC" fill-rule="evenodd"/><path d="M2742.47 1180.71 2923.18 1180.71 2923.18 1238.66 2742.47 1238.66Z" fill="#F4E9DC" fill-rule="evenodd"/><path d="M1900.11 1238.66 2176.53 1238.66 2176.53 1290.46 1900.11 1290.46Z" fill="#F4E9DC" fill-rule="evenodd"/><path d="M2176.53 1238.66 2385.52 1238.66 2385.52 1290.46 2176.53 1290.46Z" fill="#F4E9DC" fill-rule="evenodd"/><path d="M2385.52 1238.66 2597.5 1238.66 2597.5 1290.46 2385.52 1290.46Z" fill="#F4E9DC" fill-rule="evenodd"/><path d="M2597.5 1238.66 2742.47 1238.66 2742.47 1290.46 2597.5 1290.46Z" fill="#F4E9DC" fill-rule="evenodd"/><path d="M2742.47 1238.66 2923.18 1238.66 2923.18 1290.46 2742.47 1290.46Z" fill="#F4E9DC" fill-rule="evenodd"/><path d="M2176.53 977.895 2176.53 1292.75" stroke="#000000" stroke-width="4.58333" stroke-linejoin="round" stroke-miterlimit="10" fill="none" fill-rule="evenodd"/><path d="M2385.52 977.895 2385.52 1292.75" stroke="#000000" stroke-width="4.58333" stroke-linejoin="round" stroke-miterlimit="10" fill="none" fill-rule="evenodd"/><path d="M2597.5 977.895 2597.5 1292.75" stroke="#000000" stroke-width="4.58333" stroke-linejoin="round" stroke-miterlimit="10" fill="none" fill-rule="evenodd"/><path d="M2742.47 977.895 2742.47 1292.75" stroke="#000000" stroke-width="4.58333" stroke-linejoin="round" stroke-miterlimit="10" fill="none" fill-rule="evenodd"/><path d="M1897.82 1063.63 2925.47 1063.63" stroke="#000000" stroke-width="4.58333" stroke-linejoin="round" stroke-miterlimit="10" fill="none" fill-rule="evenodd"/><path d="M1897.82 1115.42 2925.47 1115.42" stroke="#000000" stroke-width="4.58333" stroke-linejoin="round" stroke-miterlimit="10" fill="none" fill-rule="evenodd"/><path d="M1897.82 1180.71 2925.47 1180.71" stroke="#000000" stroke-width="4.58333" stroke-linejoin="round" stroke-miterlimit="10" fill="none" fill-rule="evenodd"/><path d="M1897.82 1238.66 2925.47 1238.66" stroke="#000000" stroke-width="4.58333" stroke-linejoin="round" stroke-miterlimit="10" fill="none" fill-rule="evenodd"/><path d="M1900.11 977.895 1900.11 1292.75" stroke="#000000" stroke-width="4.58333" stroke-linejoin="round" stroke-miterlimit="10" fill="none" fill-rule="evenodd"/><path d="M2923.18 977.895 2923.18 1292.75" stroke="#000000" stroke-width="4.58333" stroke-linejoin="round" stroke-miterlimit="10" fill="none" fill-rule="evenodd"/><path d="M1897.82 980.186 2925.47 980.186" stroke="#000000" stroke-width="4.58333" stroke-linejoin="round" stroke-miterlimit="10" fill="none" fill-rule="evenodd"/><path d="M1897.82 1290.46 2925.47 1290.46" stroke="#000000" stroke-width="4.58333" stroke-linejoin="round" stroke-miterlimit="10" fill="none" fill-rule="evenodd"/><text font-family="Avenir Next LT Pro,Avenir Next LT Pro_MSFontService,sans-serif" font-weight="700" font-size="28" transform="matrix(1 0 0 1 2761.78 1031)">Minimality</text><text font-family="Avenir Next LT Pro,Avenir Next LT Pro_MSFontService,sans-serif" font-weight="700" font-size="28" transform="matrix(1 0 0 1 2617.56 1031)">Realism</text><text font-family="Avenir Next LT Pro,Avenir Next LT Pro_MSFontService,sans-serif" font-weight="700" font-size="28" transform="matrix(1 0 0 1 2402.99 1031)">Effective</text><text font-family="Avenir Next LT Pro,Avenir Next LT Pro_MSFontService,sans-serif" font-weight="700" font-size="28" transform="matrix(1 0 0 1 2519.87 1031)">n</text><text font-family="Avenir Next LT Pro,Avenir Next LT Pro_MSFontService,sans-serif" font-weight="700" font-size="28" transform="matrix(1 0 0 1 2537.06 1031)">ess</text><text font-family="Avenir Next LT Pro,Avenir Next LT Pro_MSFontService,sans-serif" font-weight="700" font-size="28" transform="matrix(1 0 0 1 2195.66 1031)">Composition</text><text font-family="Avenir Next LT Pro,Avenir Next LT Pro_MSFontService,sans-serif" font-weight="400" font-size="28" transform="matrix(1 0 0 1 2806.47 1099)">VAE</text><text fill="#2F5597" font-family="Avenir Next LT Pro,Avenir Next LT Pro_MSFontService,sans-serif" font-weight="700" font-size="28" transform="matrix(1 0 0 1 2631.6 1099)">HVAE</text><text fill="#2F5597" font-family="Avenir Next LT Pro,Avenir Next LT Pro_MSFontService,sans-serif" font-weight="700" font-size="28" transform="matrix(1 0 0 1 2421.61 1099)">HVAE</text><text font-family="Avenir Next LT Pro,Avenir Next LT Pro_MSFontService,sans-serif" font-weight="400" font-size="28" transform="matrix(1 0 0 1 2498.39 1099)">/VAE</text><text fill="#2F5597" font-family="Avenir Next LT Pro,Avenir Next LT Pro_MSFontService,sans-serif" font-weight="700" font-size="28" transform="matrix(1 0 0 1 2242.64 1099)">HVAE</text><text font-family="Avenir Next LT Pro,Avenir Next LT Pro_MSFontService,sans-serif" font-weight="700" font-size="28" transform="matrix(1 0 0 1 1940.35 1099)">MorphoMNIST</text><text fill="#2F5597" font-family="Avenir Next LT Pro,Avenir Next LT Pro_MSFontService,sans-serif" font-weight="700" font-size="28" transform="matrix(1 0 0 1 2794.44 1158)">HVAE</text><text fill="#2F5597" font-family="Avenir Next LT Pro,Avenir Next LT Pro_MSFontService,sans-serif" font-weight="700" font-size="28" transform="matrix(1 0 0 1 2631.6 1158)">HVAE</text><text fill="#2F5597" font-family="Avenir Next LT Pro,Avenir Next LT Pro_MSFontService,sans-serif" font-weight="700" font-size="28" transform="matrix(1 0 0 1 2417.03 1158)">HVAE</text><text font-family="Avenir Next LT Pro,Avenir Next LT Pro_MSFontService,sans-serif" font-weight="400" font-size="28" transform="matrix(1 0 0 1 2493.8 1158)">/GAN</text><text fill="#2F5597" font-family="Avenir Next LT Pro,Avenir Next LT Pro_MSFontService,sans-serif" font-weight="700" font-size="28" transform="matrix(1 0 0 1 2242.64 1158)">HVAE</text><text font-family="Avenir Next LT Pro,Avenir Next LT Pro_MSFontService,sans-serif" font-weight="700" font-size="28" transform="matrix(1 0 0 1 1931.76 1158)">CelebA (simple)</text><text font-family="Avenir Next LT Pro,Avenir Next LT Pro_MSFontService,sans-serif" font-weight="400" font-size="28" transform="matrix(1 0 0 1 2806.47 1219)">VAE</text><text font-family="Avenir Next LT Pro,Avenir Next LT Pro_MSFontService,sans-serif" font-weight="400" font-size="28" transform="matrix(1 0 0 1 2639.05 1219)">GAN</text><text fill="#2F5597" font-family="Avenir Next LT Pro,Avenir Next LT Pro_MSFontService,sans-serif" font-weight="700" font-size="28" transform="matrix(1 0 0 1 2417.03 1219)">HVAE</text><text font-family="Avenir Next LT Pro,Avenir Next LT Pro_MSFontService,sans-serif" font-weight="400" font-size="28" transform="matrix(1 0 0 1 2493.8 1219)">/GAN</text><text fill="#2F5597" font-family="Avenir Next LT Pro,Avenir Next LT Pro_MSFontService,sans-serif" font-weight="700" font-size="28" transform="matrix(1 0 0 1 2242.64 1219)">HVAE</text><text font-family="Avenir Next LT Pro,Avenir Next LT Pro_MSFontService,sans-serif" font-weight="700" font-size="28" transform="matrix(1 0 0 1 1918.58 1219)">CelebA (complex)</text><text fill="#2F5597" font-family="Avenir Next LT Pro,Avenir Next LT Pro_MSFontService,sans-serif" font-weight="700" font-size="28" transform="matrix(1 0 0 1 2794.44 1274)">HVAE</text><text fill="#2F5597" font-family="Avenir Next LT Pro,Avenir Next LT Pro_MSFontService,sans-serif" font-weight="700" font-size="28" transform="matrix(1 0 0 1 2631.6 1274)">HVAE</text><text fill="#2F5597" font-family="Avenir Next LT Pro,Avenir Next LT Pro_MSFontService,sans-serif" font-weight="700" font-size="28" transform="matrix(1 0 0 1 2421.61 1274)">HVAE</text><text font-family="Avenir Next LT Pro,Avenir Next LT Pro_MSFontService,sans-serif" font-weight="400" font-size="28" transform="matrix(1 0 0 1 2498.39 1274)">/VAE</text><text fill="#2F5597" font-family="Avenir Next LT Pro,Avenir Next LT Pro_MSFontService,sans-serif" font-weight="700" font-size="28" transform="matrix(1 0 0 1 2242.64 1274)">HVAE</text><text font-family="Avenir Next LT Pro,Avenir Next LT Pro_MSFontService,sans-serif" font-weight="700" font-size="28" transform="matrix(1 0 0 1 2002.51 1274)">ADNI</text></g></svg>